<mxfile host="app.diagrams.net" agent="Mozilla/5.0 (X11; Ubuntu; Linux x86_64; rv:142.0) Gecko/20100101 Firefox/142.0" version="28.2.3">
  <diagram name="Page-1" id="pB9MQY9FaiaUGlsKX2Bd">
    <mxGraphModel dx="872" dy="459" grid="1" gridSize="10" guides="1" tooltips="1" connect="1" arrows="1" fold="1" page="1" pageScale="1" pageWidth="595" pageHeight="842" math="1" shadow="0">
      <root>
        <mxCell id="0" />
        <mxCell id="1" parent="0" />
        <mxCell id="1MDCjSrTsElOiD71asJS-1" value="" style="rounded=0;whiteSpace=wrap;html=1;strokeColor=none;" vertex="1" parent="1">
          <mxGeometry x="100" y="120" width="530" height="400" as="geometry" />
        </mxCell>
        <mxCell id="1MDCjSrTsElOiD71asJS-2" value="" style="ellipse;whiteSpace=wrap;html=1;aspect=fixed;fillColor=#616161;strokeColor=none;shadow=1;" vertex="1" parent="1">
          <mxGeometry x="310" y="136" width="78" height="78" as="geometry" />
        </mxCell>
        <mxCell id="1MDCjSrTsElOiD71asJS-3" value="" style="sketch=0;outlineConnect=0;fontColor=#232F3E;gradientColor=none;fillColor=#000000;strokeColor=none;dashed=0;verticalLabelPosition=bottom;verticalAlign=top;align=center;html=1;fontSize=12;fontStyle=0;aspect=fixed;pointerEvents=1;shape=mxgraph.aws4.gear;" vertex="1" parent="1">
          <mxGeometry x="319" y="145" width="60" height="60" as="geometry" />
        </mxCell>
        <mxCell id="1MDCjSrTsElOiD71asJS-4" value="" style="shape=image;html=1;verticalAlign=top;verticalLabelPosition=bottom;labelBackgroundColor=#ffffff;imageAspect=0;aspect=fixed;image=https://cdn0.iconfinder.com/data/icons/phosphor-light-vol-1/256/brain-light-128.png;imageBackground=#616161;" vertex="1" parent="1">
          <mxGeometry x="333" y="159" width="32" height="32" as="geometry" />
        </mxCell>
        <mxCell id="1MDCjSrTsElOiD71asJS-5" value="$$\text{Modelo de}$$" style="text;html=1;align=center;verticalAlign=middle;whiteSpace=wrap;rounded=0;" vertex="1" parent="1">
          <mxGeometry x="319" y="210" width="60" height="30" as="geometry" />
        </mxCell>
        <mxCell id="1MDCjSrTsElOiD71asJS-6" value="$$\text{ClasificaciÃ³n}$$" style="text;html=1;align=center;verticalAlign=middle;whiteSpace=wrap;rounded=0;" vertex="1" parent="1">
          <mxGeometry x="319" y="223" width="60" height="30" as="geometry" />
        </mxCell>
        <mxCell id="1MDCjSrTsElOiD71asJS-7" value="$$X_L$$" style="strokeWidth=2;html=1;shape=mxgraph.flowchart.database;whiteSpace=wrap;fillColor=#CFE6CE;shadow=1;" vertex="1" parent="1">
          <mxGeometry x="140" y="250" width="40" height="60" as="geometry" />
        </mxCell>
        <mxCell id="1MDCjSrTsElOiD71asJS-8" value="$$X_U$$" style="strokeWidth=2;html=1;shape=mxgraph.flowchart.database;whiteSpace=wrap;fillColor=#E1DFD2;shadow=1;" vertex="1" parent="1">
          <mxGeometry x="520" y="236.5" width="90" height="87" as="geometry" />
        </mxCell>
        <mxCell id="1MDCjSrTsElOiD71asJS-9" value="" style="shape=mxgraph.cisco.people.androgenous_person;html=1;pointerEvents=1;dashed=0;fillColor=#000000;strokeColor=#ffffff;strokeWidth=2;verticalLabelPosition=bottom;verticalAlign=top;align=center;outlineConnect=0;shadow=1;" vertex="1" parent="1">
          <mxGeometry x="250" y="369" width="69" height="82" as="geometry" />
        </mxCell>
        <mxCell id="1MDCjSrTsElOiD71asJS-10" value="" style="swimlane;rounded=1;fillColor=#B3B3B3;swimlaneLine=1;shadow=1;glass=0;swimlaneFillColor=none;gradientColor=none;whiteSpace=wrap;html=1;fontColor=default;labelBackgroundColor=none;labelBorderColor=none;textShadow=0;startSize=30;" vertex="1" parent="1">
          <mxGeometry x="379" y="350" width="110" height="120" as="geometry">
            <mxRectangle x="-851" y="20" width="140" height="30" as="alternateBounds" />
          </mxGeometry>
        </mxCell>
        <mxCell id="1MDCjSrTsElOiD71asJS-11" value="" style="rounded=0;whiteSpace=wrap;html=1;" vertex="1" parent="1MDCjSrTsElOiD71asJS-10">
          <mxGeometry x="15" y="44" width="80" height="66" as="geometry" />
        </mxCell>
        <mxCell id="1MDCjSrTsElOiD71asJS-12" value="&lt;font style=&quot;font-size: 8px;&quot;&gt;$$\text{utility}$$&lt;/font&gt;" style="text;html=1;align=center;verticalAlign=middle;whiteSpace=wrap;rounded=0;" vertex="1" parent="1MDCjSrTsElOiD71asJS-10">
          <mxGeometry x="10" y="44" width="90" height="16" as="geometry" />
        </mxCell>
        <mxCell id="1MDCjSrTsElOiD71asJS-13" value="$$\text{Query strategy}$$" style="text;html=1;align=center;verticalAlign=middle;whiteSpace=wrap;rounded=0;" vertex="1" parent="1MDCjSrTsElOiD71asJS-10">
          <mxGeometry x="26" y="7" width="60" height="20" as="geometry" />
        </mxCell>
        <mxCell id="1MDCjSrTsElOiD71asJS-14" value="$$u_1$$" style="text;html=1;align=center;verticalAlign=middle;whiteSpace=wrap;rounded=0;" vertex="1" parent="1MDCjSrTsElOiD71asJS-10">
          <mxGeometry x="46" y="55" width="18" height="11" as="geometry" />
        </mxCell>
        <mxCell id="1MDCjSrTsElOiD71asJS-15" value="$$u_2$$" style="text;html=1;align=center;verticalAlign=middle;whiteSpace=wrap;rounded=0;" vertex="1" parent="1MDCjSrTsElOiD71asJS-10">
          <mxGeometry x="46" y="66" width="18" height="11" as="geometry" />
        </mxCell>
        <mxCell id="1MDCjSrTsElOiD71asJS-16" value="&lt;font style=&quot;font-size: 10px;&quot;&gt;$$?$$&lt;/font&gt;" style="text;html=1;align=center;verticalAlign=middle;whiteSpace=wrap;rounded=0;" vertex="1" parent="1MDCjSrTsElOiD71asJS-10">
          <mxGeometry x="12" y="58" width="18" height="11" as="geometry" />
        </mxCell>
        <mxCell id="1MDCjSrTsElOiD71asJS-17" value="" style="endArrow=none;dashed=1;html=1;dashPattern=1 3;strokeWidth=2;rounded=0;" edge="1" parent="1MDCjSrTsElOiD71asJS-10">
          <mxGeometry width="50" height="50" relative="1" as="geometry">
            <mxPoint x="20.899999999999977" y="102" as="sourcePoint" />
            <mxPoint x="20.899999999999977" y="82" as="targetPoint" />
          </mxGeometry>
        </mxCell>
        <mxCell id="1MDCjSrTsElOiD71asJS-18" value="&lt;font style=&quot;font-size: 10px;&quot;&gt;$$?$$&lt;/font&gt;" style="text;html=1;align=center;verticalAlign=middle;whiteSpace=wrap;rounded=0;" vertex="1" parent="1">
          <mxGeometry x="391" y="419" width="18" height="11" as="geometry" />
        </mxCell>
        <mxCell id="1MDCjSrTsElOiD71asJS-19" value="" style="endArrow=none;dashed=1;html=1;dashPattern=1 3;strokeWidth=2;rounded=0;" edge="1" parent="1">
          <mxGeometry width="50" height="50" relative="1" as="geometry">
            <mxPoint x="432.9000000000001" y="452" as="sourcePoint" />
            <mxPoint x="432.9000000000001" y="432" as="targetPoint" />
          </mxGeometry>
        </mxCell>
        <mxCell id="1MDCjSrTsElOiD71asJS-20" value="$$\text{Labeled data}$$" style="text;html=1;align=center;verticalAlign=middle;whiteSpace=wrap;rounded=0;" vertex="1" parent="1">
          <mxGeometry x="130" y="319" width="60" height="30" as="geometry" />
        </mxCell>
        <mxCell id="1MDCjSrTsElOiD71asJS-21" value="$$\text{Unlabeled data}$$" style="text;html=1;align=center;verticalAlign=middle;whiteSpace=wrap;rounded=0;" vertex="1" parent="1">
          <mxGeometry x="535" y="323.5" width="60" height="30" as="geometry" />
        </mxCell>
        <mxCell id="1MDCjSrTsElOiD71asJS-22" value="$$\text{Expert/Annotator}$$" style="text;html=1;align=center;verticalAlign=middle;whiteSpace=wrap;rounded=0;" vertex="1" parent="1">
          <mxGeometry x="255" y="470" width="60" height="30" as="geometry" />
        </mxCell>
        <mxCell id="1MDCjSrTsElOiD71asJS-23" value="" style="endArrow=open;html=1;rounded=0;exitX=0.5;exitY=1;exitDx=0;exitDy=0;entryX=1;entryY=0.5;entryDx=0;entryDy=0;curved=1;endFill=0;strokeWidth=2;" edge="1" parent="1" source="1MDCjSrTsElOiD71asJS-21">
          <mxGeometry width="50" height="50" relative="1" as="geometry">
            <mxPoint x="568" y="362.5" as="sourcePoint" />
            <mxPoint x="492" y="419" as="targetPoint" />
            <Array as="points">
              <mxPoint x="568" y="419" />
            </Array>
          </mxGeometry>
        </mxCell>
        <mxCell id="1MDCjSrTsElOiD71asJS-24" value="" style="endArrow=open;html=1;rounded=0;entryX=0.5;entryY=1;entryDx=0;entryDy=0;exitX=0.01;exitY=0.5;exitDx=0;exitDy=0;exitPerimeter=0;strokeWidth=2;endFill=0;curved=1;" edge="1" parent="1" target="1MDCjSrTsElOiD71asJS-20">
          <mxGeometry width="50" height="50" relative="1" as="geometry">
            <mxPoint x="246.69000000000005" y="418" as="sourcePoint" />
            <mxPoint x="156" y="357" as="targetPoint" />
            <Array as="points">
              <mxPoint x="156" y="418" />
            </Array>
          </mxGeometry>
        </mxCell>
        <mxCell id="1MDCjSrTsElOiD71asJS-25" value="" style="endArrow=open;html=1;rounded=0;endFill=0;strokeWidth=2;" edge="1" parent="1">
          <mxGeometry width="50" height="50" relative="1" as="geometry">
            <mxPoint x="370" y="420" as="sourcePoint" />
            <mxPoint x="330" y="420" as="targetPoint" />
          </mxGeometry>
        </mxCell>
        <mxCell id="1MDCjSrTsElOiD71asJS-26" value="" style="endArrow=open;html=1;rounded=0;exitX=0.5;exitY=0;exitDx=0;exitDy=0;exitPerimeter=0;entryX=0;entryY=0.5;entryDx=0;entryDy=0;strokeWidth=2;endFill=0;curved=1;" edge="1" parent="1">
          <mxGeometry width="50" height="50" relative="1" as="geometry">
            <mxPoint x="156" y="247.00000000000006" as="sourcePoint" />
            <mxPoint x="306.0000000000002" y="172" as="targetPoint" />
            <Array as="points">
              <mxPoint x="156" y="172" />
            </Array>
          </mxGeometry>
        </mxCell>
        <mxCell id="1MDCjSrTsElOiD71asJS-27" value="" style="endArrow=open;html=1;rounded=0;exitX=1;exitY=0.5;exitDx=0;exitDy=0;entryX=0.5;entryY=0;entryDx=0;entryDy=0;entryPerimeter=0;strokeWidth=2;endFill=0;curved=1;" edge="1" parent="1">
          <mxGeometry width="50" height="50" relative="1" as="geometry">
            <mxPoint x="390.9999999999993" y="168" as="sourcePoint" />
            <mxPoint x="565" y="233.5" as="targetPoint" />
            <Array as="points">
              <mxPoint x="568" y="168" />
            </Array>
          </mxGeometry>
        </mxCell>
        <mxCell id="1MDCjSrTsElOiD71asJS-28" value="$$\text{Re-training}$$" style="text;html=1;align=center;verticalAlign=middle;whiteSpace=wrap;rounded=0;" vertex="1" parent="1">
          <mxGeometry x="150" y="145" width="60" height="30" as="geometry" />
        </mxCell>
        <mxCell id="1MDCjSrTsElOiD71asJS-29" value="$$\text{Prediction}$$" style="text;html=1;align=center;verticalAlign=middle;whiteSpace=wrap;rounded=0;" vertex="1" parent="1">
          <mxGeometry x="486" y="145" width="60" height="30" as="geometry" />
        </mxCell>
        <mxCell id="1MDCjSrTsElOiD71asJS-30" value="$$\text{Samples selection}$$" style="text;html=1;align=center;verticalAlign=middle;whiteSpace=wrap;rounded=0;" vertex="1" parent="1">
          <mxGeometry x="486" y="470" width="60" height="30" as="geometry" />
        </mxCell>
        <mxCell id="1MDCjSrTsElOiD71asJS-31" value="$$\langle\textbf{X}^{*},?\rangle$$" style="text;html=1;align=center;verticalAlign=middle;whiteSpace=wrap;rounded=0;" vertex="1" parent="1">
          <mxGeometry x="319" y="380" width="60" height="30" as="geometry" />
        </mxCell>
        <mxCell id="1MDCjSrTsElOiD71asJS-32" value="$$\langle\textbf{X}^{*},y^{*}\rangle$$" style="text;html=1;align=center;verticalAlign=middle;whiteSpace=wrap;rounded=0;" vertex="1" parent="1">
          <mxGeometry x="180" y="360" width="60" height="30" as="geometry" />
        </mxCell>
      </root>
    </mxGraphModel>
  </diagram>
</mxfile>
